<svg xmlns="http://www.w3.org/2000/svg" width="18px" height="18px" viewBox="0 0 18 18">
    <g id="Symbols" stroke="none" stroke-width="1" fill="none" fill-rule="evenodd">
        <g id="Glyphs-/-Close" transform="translate(-3.000000, -3.000000)" fill="#92969C">
            <g id="noun_X_1890803_000000" transform="translate(3.000000, 3.000000)">
                <path d="M10.96875,9 L17.49375,2.475 C18.0375,1.93125 18.0375,1.05 17.49375,0.50625 C16.95,-0.0375 16.06875,-0.0375 15.525,0.50625 L9,7.03125 L2.475,0.50625 C1.93125,-0.0375 1.05,-0.0375 0.50625,0.50625 C-0.0375,1.05 -0.0375,1.93125 0.50625,2.475 L7.03125,9 L0.50625,15.525 C-0.0375,16.06875 -0.0375,16.95 0.50625,17.49375 C0.76875,17.75625 1.125,17.90625 1.48125,17.90625 C1.8375,17.90625 2.19375,17.775 2.45625,17.49375 L9,10.96875 L15.525,17.49375 C15.7875,17.75625 16.14375,17.90625 16.5,17.90625 C16.85625,17.90625 17.2125,17.775 17.475,17.49375 C18.01875,16.95 18.01875,16.06875 17.475,15.525 L10.96875,9 Z" id="Path"></path>
            </g>
        </g>
    </g>
</svg>