<?xml version="1.0" encoding="UTF-8"?>
<svg width="24px" height="24px" viewBox="0 0 24 24" version="1.1" xmlns="http://www.w3.org/2000/svg" xmlns:xlink="http://www.w3.org/1999/xlink">
    <!-- Generator: Sketch 56.3 (81716) - https://sketch.com -->
    <title>flag</title>
    <desc>Created with Sketch.</desc>
    <g id="Page-1" stroke="none" stroke-width="1" fill="none" fill-rule="evenodd">
        <g id="flag" fill="#C8CCCF" fill-rule="nonzero">
            <path d="M1,0 C1.55228475,0 2,0.44771525 2,1 L2,1.88 C3.06,1.44 4.5,1 6,1 C9,1 9,3 11,3 C14,3 15,1 15,1 L15,9 C15,9 14,11 11,11 C8,11 8,9 6,9 C3,9 2,11 2,11 L2,18 L0,18 L0,1 C0,0.44771525 0.44771525,0 1,0 Z" id="Path"></path>
        </g>
    </g>
</svg>