<svg xmlns="http://www.w3.org/2000/svg" width="335" height="54" viewBox="0 0 335 54">
    <g fill="none" fill-rule="nonzero">
        <path fill="#3F4144" d="M20.795 19.211v27.702c0 1.311.342 1.824 1.425 2.11l.57.227c.798.228 1.026.627 1.026 1.881v.97H8.939v-.97c0-1.31.171-1.596 1.14-1.88l.57-.229c.969-.285 1.311-.798 1.311-2.109V19.268c0-1.31-.342-1.824-1.311-2.166l-.57-.17c-.912-.286-1.14-.628-1.14-1.882v-.969h14.877v.97c0 1.253-.228 1.71-1.026 1.88l-.57.171c-1.083.342-1.425.855-1.425 2.11zm17.784 6.67h5.13v3.42h-5.13v16.187c0 2.28.855 3.534 2.565 3.534.798 0 1.311-.228 2.451-.969l1.425 1.881c-2.052 2.052-4.104 2.907-7.125 2.907-2.451 0-4.161-.57-5.7-1.824-1.596-1.368-2.109-2.85-2.109-5.985V29.3h-3.249v-1.14c0-.798.228-1.026 1.938-1.824.969-.456 1.311-1.14 1.311-2.337v-3.078c0-1.88.399-2.337 2.166-2.394l6.327-.342v7.695zm32.889 12.54H54.311c.114 7.41 2.907 11.4 7.866 11.4 2.679 0 4.617-1.14 7.41-4.39l2.109 1.824c-2.793 3.705-6.612 5.586-11.457 5.586-8.493 0-14.877-6.213-14.877-14.478 0-7.638 5.529-13.167 13.224-13.167 7.866 0 12.711 5.016 12.882 13.224zm-17.157-2.85h8.778c0-4.96-1.539-7.696-4.275-7.696-2.736 0-4.332 2.736-4.503 7.695zm30.951-10.09v2.793c2.337-2.109 4.845-3.135 7.695-3.135 3.363 0 5.529 1.083 7.239 3.648.285-.228.57-.456.627-.513 2.109-1.767 2.622-2.109 3.876-2.508 1.197-.399 2.394-.627 3.534-.627 2.736 0 5.244 1.083 6.783 2.964 1.254 1.482 1.596 2.622 1.596 5.53v13.28c0 1.254.342 1.824 1.311 2.11l.57.17c.969.342 1.14.627 1.14 1.938v.97h-14.364v-.97c0-1.31.114-1.482 1.14-1.88l.399-.172c1.14-.57 1.311-.798 1.311-2.166v-13.28c0-3.193-1.026-4.504-3.363-4.504-1.767 0-2.793.627-3.591 2.11v15.674c0 1.311.114 1.482 1.14 2.166l.285.171c1.026.4 1.14.57 1.14 1.881v.97H89.993v-.913c0-1.368.114-1.482 1.083-1.938l.342-.17c1.14-.628 1.254-.799 1.254-2.11V32.663c0-2.508-1.083-3.762-3.135-3.762-1.539 0-3.021.855-3.99 2.223V46.97c0 1.311.171 1.596 1.368 2.11l.399.17c1.083.4 1.197.57 1.197 1.881v.97H74.033v-.97c0-1.31.171-1.596 1.14-1.88l.57-.172c.969-.342 1.311-.855 1.311-2.109V31.067c0-1.31-.342-1.824-1.311-2.109l-.57-.17c-.969-.343-1.14-.628-1.14-1.939v-.969l11.229-.399zm83.847-10.83v10.602l-1.596.057h-.171c-.912 0-1.425-.456-2.109-1.88l-.684-1.312c-1.254-2.508-1.596-3.02-2.679-3.99-1.425-1.31-3.078-1.938-5.13-1.938-6.156 0-9.861 5.871-9.861 15.732 0 10.773 4.731 17.442 12.312 17.442 2.451 0 4.674-.798 6.384-2.28.741-.627 1.368-1.368 2.679-3.363l2.622 1.653c-2.394 3.42-3.192 4.275-5.244 5.472-2.679 1.54-5.244 2.223-8.55 2.223-6.84 0-12.141-2.508-15.789-7.467-2.565-3.534-4.047-8.265-4.047-13.11 0-5.472 1.881-10.488 5.244-14.25 3.249-3.648 7.239-5.3 12.483-5.3 3.306 0 5.073.455 8.436 2.28.627.341 1.083.455 1.539.455.684 0 1.026-.285 1.254-1.083l2.907.057zm32.205 10.887V46.8c0 1.254.342 1.767 1.311 2.11l.57.17c.969.285 1.14.627 1.14 1.938V52.1h-11.286v-2.337c-1.311 1.197-1.71 1.482-2.28 1.824-1.311.741-3.477 1.254-5.529 1.254-5.016 0-8.151-3.363-8.151-8.72V31.066c0-1.368-.114-1.539-1.311-2.109l-.399-.17c-1.197-.457-1.311-.628-1.311-1.939v-.969l11.514-.342v18.81c0 2.85 1.254 4.674 3.306 4.674 1.425 0 3.135-.798 3.933-1.824v-16.13c0-1.312-.342-1.825-1.311-2.11l-.513-.17c-.969-.343-1.14-.628-1.14-1.939v-.969l11.457-.342zm17.1-.057v8.094c.285-.513.456-.912.57-1.083 1.539-3.02 2.109-3.933 3.249-5.073 1.425-1.482 3.021-2.28 4.617-2.28 2.451 0 4.275 1.824 4.275 4.332 0 2.28-1.596 4.161-3.648 4.161-1.026 0-1.824-.399-2.736-1.539-.342-.399-.798-.627-1.254-.627-1.824 0-4.161 5.7-4.161 10.26v5.244c0 1.14.456 1.938 1.14 2.11l.969.17c.684.114.912.627.912 1.881v.97h-14.535v-.97c0-1.254.171-1.596 1.14-1.88l.57-.172c.969-.342 1.311-.855 1.311-2.109V31.067c0-1.254-.399-1.88-1.311-2.109l-.684-.17c-.798-.229-1.026-.685-1.026-1.939v-.969l10.602-.399zm41.553 22.63l.684.911c.228.342.342.57.342.741 0 1.368-2.907 2.907-5.472 2.907-2.508 0-4.332-1.31-5.472-3.99-2.679 3.192-4.674 4.161-8.55 4.161-5.358 0-9.006-3.078-9.006-7.58 0-3.592 2.223-6.157 6.954-7.98 1.539-.628 1.71-.628 9.063-2.28-.057-2.395-.171-3.42-.57-4.447-.684-1.767-1.995-2.736-3.648-2.736-1.425 0-2.451.684-2.451 1.653 0 .171.057.456.114.798l.057.97c0 1.994-1.596 3.42-3.762 3.42-2.223 0-3.99-1.597-3.99-3.592 0-3.42 4.332-5.928 10.146-5.928 4.389 0 8.265 1.425 10.374 3.82 1.824 1.994 2.394 4.103 2.394 8.663v7.011c0 2.68 0 2.793.342 3.42.228.513.627.798 1.083.798.456 0 .969-.228 1.368-.74zm-11.286-5.7v-4.789c-4.389.684-6.954 3.363-6.954 7.24 0 2.564 1.368 4.56 3.021 4.56 2.337 0 3.933-2.85 3.933-7.012zm24.396-16.53h5.13v3.42h-5.13v16.187c0 2.28.855 3.534 2.565 3.534.798 0 1.311-.228 2.451-.969l1.425 1.881c-2.052 2.052-4.104 2.907-7.125 2.907-2.451 0-4.161-.57-5.7-1.824-1.596-1.368-2.109-2.85-2.109-5.985V29.3h-3.249v-1.14c0-.798.228-1.026 1.938-1.824.969-.456 1.311-1.14 1.311-2.337v-3.078c0-1.88.399-2.337 2.166-2.394l6.327-.342v7.695zm21.204-.742c8.322 0 14.193 5.7 14.193 13.851 0 7.98-6.099 13.851-14.307 13.851-8.265 0-14.307-5.928-14.307-14.136 0-7.809 6.099-13.566 14.421-13.566zm-.171 2.68c-3.249 0-5.016 3.932-5.016 11 0 7.467 1.824 11.343 5.244 11.343 3.249 0 4.902-3.477 4.902-10.43 0-7.753-1.767-11.914-5.13-11.914zm27.645-2.338v8.094c.285-.513.456-.912.57-1.083 1.539-3.02 2.109-3.933 3.249-5.073 1.425-1.482 3.021-2.28 4.617-2.28 2.451 0 4.275 1.824 4.275 4.332 0 2.28-1.596 4.161-3.648 4.161-1.026 0-1.824-.399-2.736-1.539-.342-.399-.798-.627-1.254-.627-1.824 0-4.161 5.7-4.161 10.26v5.244c0 1.14.456 1.938 1.14 2.11l.969.17c.684.114.912.627.912 1.881v.97h-14.535v-.97c0-1.254.171-1.596 1.14-1.88l.57-.172c.969-.342 1.311-.855 1.311-2.109V31.067c0-1.254-.399-1.88-1.311-2.109l-.684-.17c-.798-.229-1.026-.685-1.026-1.939v-.969l10.602-.399z"/>
        <g transform="rotate(9 16.335 45.107)">
            <path fill="#7ED987" stroke="#3F4144" stroke-linecap="round" stroke-linejoin="round" stroke-width="2" d="M16.385 4.662C18.169 1.774 19.978.33 21.813.33c1.834 0 4.455 1.444 7.862 4.332-4.647 4.274-8.157 5.936-10.531 4.987-2.374-.95-2.16.402.644 4.052-.182.849-.397 1.345-.644 1.489-.873.506-1.667.564-2.217 0-1.176-1.208-2.837-5.078-2.837-1.489 0 3.59-3.675 4.136-3.675 5.19 0 1.128 2.995 1.746 2.995 3.52 0 1.775-2.995 2.613-5.508-.955-1.002-1.423.408 1.286 0 4.672-.283 2.356-2.686 13.631-6.838 13.779-1.245.044 3.57-7.547 2.686-12.612C1.658 15.305 5.87 7.762 16.385 4.662z"/>
            <ellipse cx="22.799" cy="3.559" fill="#3F4144" rx="1.025" ry="1.096"/>
        </g>
    </g>
</svg>
