<?xml version="1.0" encoding="UTF-8"?>
<svg width="141px" height="26px" viewBox="0 0 141 26" version="1.1" xmlns="http://www.w3.org/2000/svg" xmlns:xlink="http://www.w3.org/1999/xlink">
    <title>Item_Curator_Logo</title>
    <g id="Item_Curator_Logo" stroke="none" stroke-width="1" fill="none" fill-rule="evenodd">
        <g id="Group-3" transform="translate(3.588000, 7.934000)" fill="#3F4144" fill-rule="nonzero">
            <g id="Group-2-Copy">
                <path d="M6.552,17.666 L6.552,16.778 C6.552,16.418 6.384,16.274 6.12,16.13 C5.4,15.722 5.112,15.506 5.112,14.09 L5.112,3.914 C5.112,2.546 5.28,2.33 5.952,1.874 C6.168,1.73 6.288,1.586 6.288,1.226 L6.288,0.338 L0.24,0.338 L0.24,1.226 C0.24,1.61 0.384,1.73 0.6,1.874 C1.248,2.33 1.44,2.57 1.44,3.914 L1.44,14.09 C1.44,15.506 1.104,15.746 0.408,16.13 C0.144,16.274 0,16.394 0,16.778 L0,17.666 L6.552,17.666 Z M12.56,17.954 C14.384,17.954 15.728,17.138 15.728,16.682 C15.728,16.586 15.704,16.49 15.656,16.394 L15.224,15.554 C14.768,15.77 14.384,15.89 14.096,15.89 C12.992,15.89 12.632,15.122 12.632,13.466 L12.632,9.338 L15.128,9.338 L15.128,7.658 L12.632,7.658 L12.632,4.01 L9.296,4.178 L9.296,6.29 C9.296,6.938 9.2,7.298 8.912,7.49 C8.456,7.778 8.144,7.658 8.144,8.21 L8.144,9.338 L9.296,9.338 L9.296,14.21 C9.296,16.754 10.28,17.954 12.56,17.954 Z M22.216,17.954 C23.872,17.954 25.432,17.354 26.656,16.274 C27.064,15.914 27.256,15.65 27.256,15.41 C27.256,15.266 27.184,15.146 27.136,15.098 L26.32,14.21 C25.168,15.338 24.088,15.914 22.864,15.914 C21.064,15.914 20.032,14.69 20.008,12.41 L27.304,12.41 L27.304,12.026 C27.304,9.122 25.48,7.394 22.432,7.394 C18.952,7.394 16.72,9.578 16.72,12.794 C16.72,15.866 18.952,17.954 22.216,17.954 Z M23.92,10.73 L20.224,10.73 C20.464,9.53 21.16,8.906 22.192,8.906 C23.224,8.906 23.824,9.506 23.92,10.73 Z M34.368,17.666 L34.368,16.802 C34.368,16.49 34.2,16.37 33.912,16.226 C33.3296,15.9124 33.2698667,15.6197067 33.2644907,15.0162009 L33.264,10.49 C33.888,9.866 34.656,9.554 35.136,9.554 C36.312,9.554 36.648,10.274 36.648,11.738 L36.648,14.882 C36.648,15.578 36.648,15.89 36.024,16.226 C35.736,16.37 35.544,16.49 35.544,16.802 L35.544,17.666 L41.088,17.666 L41.088,16.802 C41.088,16.49 40.896,16.37 40.608,16.226 C40.0256,15.9124 39.9867733,15.6197067 39.9841849,15.0162009 L39.984,10.49 C40.608,9.866 41.352,9.554 41.832,9.554 C43.008,9.554 43.368,10.274 43.368,11.738 L43.368,14.882 C43.368,15.578 43.344,15.89 42.72,16.226 C42.432,16.37 42.264,16.49 42.264,16.802 L42.264,17.666 L47.808,17.666 L47.808,16.802 C47.808,16.49 47.616,16.37 47.328,16.226 C46.7456,15.9124 46.7067733,15.6197067 46.7041849,15.0162009 L46.704,11.354 C46.704,8.738 45.576,7.442 43.344,7.442 C42.24,7.442 40.992,7.994 39.552,9.05 C39,7.97 38.064,7.442 36.648,7.442 C35.616,7.442 34.44,7.922 33.072,8.858 L33.072,7.658 L28.824,7.658 L28.824,8.546 C28.824,8.858 29.016,8.93 29.304,9.098 C29.928,9.434 29.928,9.746 29.928,10.442 L29.928,14.882 C29.928,15.578 29.928,15.89 29.304,16.226 C29.016,16.37 28.824,16.49 28.824,16.802 L28.824,17.666 L34.368,17.666 Z" id="Item" />
                <path d="M63.078,17.904 C65.406,17.904 67.566,17.04 69.078,15.576 C69.774,14.904 70.134,14.496 70.134,14.16 C70.134,14.064 70.086,13.92 69.99,13.848 L68.982,12.936 C67.35,14.808 65.718,15.696 63.822,15.696 C60.654,15.696 58.902,13.248 58.902,8.592 C58.902,4.248 60.654,1.944 63.654,1.944 C65.334,1.944 66.39,2.64 67.182,4.152 C67.638,5.016 67.518,5.448 68.382,5.448 L69.27,5.448 L69.27,0.84 L68.166,0.84 C67.926,0.84 67.638,0.96 67.302,0.96 C66.798,0.96 65.43,0 63.15,0 C60.99,0 58.998,0.816 57.486,2.328 C55.782,4.032 54.894,6.336 54.894,9.072 C54.894,11.976 55.878,14.352 57.726,15.96 C59.19,17.232 61.014,17.904 63.078,17.904 Z M75.806,17.832 C77.03,17.832 78.182,17.352 79.526,16.416 L79.526,17.616 L83.774,17.616 L83.774,16.752 C83.774,16.44 83.582,16.32 83.294,16.176 C82.7116,15.8624 82.6727733,15.5697067 82.6701849,14.9662009 L82.67,7.608 L78.23,7.608 L78.23,8.496 C78.23,8.808 78.398,8.88 78.686,9.048 C79.31,9.384 79.334,9.696 79.334,10.392 L79.334,14.808 C78.734,15.408 78.062,15.72 77.342,15.72 C76.046,15.72 75.71,15.048 75.71,13.56 L75.71,7.608 L71.27,7.608 L71.27,8.496 C71.27,8.808 71.462,8.88 71.75,9.048 C72.374,9.384 72.398,9.696 72.398,10.392 L72.398,13.944 C72.398,16.56 73.526,17.832 75.806,17.832 Z M90.718,17.616 L90.718,16.752 C90.718,16.44 90.55,16.32 90.262,16.176 C89.638,15.84 89.614,15.528 89.614,14.832 L89.614,13.296 C89.614,11.232 90.19,9.96 91.222,9.528 C91.294,10.344 91.726,10.752 92.566,10.752 C93.454,10.752 94.054,10.104 94.054,9.12 C94.054,8.016 93.334,7.344 92.086,7.344 C90.958,7.344 89.95,8.232 89.158,10.008 L89.158,7.608 L85.174,7.608 L85.174,8.496 C85.174,8.808 85.366,8.88 85.654,9.048 C86.2364,9.3616 86.2752267,9.65429333 86.2778151,10.2577991 L86.278,14.832 C86.278,15.528 86.278,15.84 85.654,16.176 C85.366,16.32 85.174,16.44 85.174,16.752 L85.174,17.616 L90.718,17.616 Z M103.998,17.88 C104.742,17.88 105.51,17.616 106.206,17.064 L105.702,15.312 C105.486,15.384 105.318,15.408 105.174,15.408 C104.526,15.408 104.358,14.904 104.358,13.752 L104.358,11.664 C104.358,8.568 103.11,7.344 99.63,7.344 C97.182,7.344 95.79,8.16 95.79,9.456 C95.79,10.248 96.318,10.752 97.182,10.752 C98.238,10.752 98.79,10.248 98.79,9.336 L98.79,9.096 C99.078,9.024 99.318,8.976 99.51,8.976 C100.59,8.976 101.19,9.528 101.19,10.416 L101.19,10.8 C97.038,11.208 95.046,12.408 95.046,14.712 C95.046,16.68 96.294,17.88 98.358,17.88 C99.75,17.88 100.83,17.424 101.838,16.416 C102.27,17.376 103.038,17.88 103.998,17.88 Z M99.438,16.032 C98.598,16.032 98.07,15.48 98.07,14.616 C98.07,13.44 99.126,12.648 101.19,12.504 L101.19,13.8 C101.19,15.312 100.71,16.032 99.438,16.032 Z M111.278,17.904 C113.102,17.904 114.446,17.088 114.446,16.632 C114.446,16.536 114.422,16.44 114.374,16.344 L113.942,15.504 C113.486,15.72 113.102,15.84 112.814,15.84 C111.71,15.84 111.35,15.072 111.35,13.416 L111.35,9.288 L113.846,9.288 L113.846,7.608 L111.35,7.608 L111.35,3.96 L108.014,4.128 L108.014,6.24 C108.014,6.888 107.918,7.248 107.63,7.44 C107.174,7.728 106.862,7.608 106.862,8.16 L106.862,9.288 L108.014,9.288 L108.014,14.16 C108.014,16.704 108.998,17.904 111.278,17.904 Z M121.174,17.904 C124.63,17.904 126.886,15.672 126.886,12.624 C126.886,9.576 124.606,7.344 121.174,7.344 C117.742,7.344 115.438,9.576 115.438,12.6 C115.438,15.648 117.742,17.904 121.174,17.904 Z M121.174,16.176 C119.638,16.176 118.966,15.024 118.966,12.624 C118.966,10.224 119.638,9.072 121.174,9.072 C122.71,9.072 123.382,10.224 123.382,12.624 C123.382,15.024 122.71,16.176 121.174,16.176 Z M133.878,17.616 L133.878,16.752 C133.878,16.44 133.71,16.32 133.422,16.176 C132.798,15.84 132.774,15.528 132.774,14.832 L132.774,13.296 C132.774,11.232 133.35,9.96 134.382,9.528 C134.454,10.344 134.886,10.752 135.726,10.752 C136.614,10.752 137.214,10.104 137.214,9.12 C137.214,8.016 136.494,7.344 135.246,7.344 C134.118,7.344 133.11,8.232 132.318,10.008 L132.318,7.608 L128.334,7.608 L128.334,8.496 C128.334,8.808 128.526,8.88 128.814,9.048 C129.438,9.384 129.438,9.696 129.438,10.392 L129.438,14.832 C129.438,15.528 129.438,15.84 128.814,16.176 C128.526,16.32 128.334,16.44 128.334,16.752 L128.334,17.616 L133.878,17.616 Z" id="Curator" />
            </g>
        </g>
        <g id="Group" transform="translate(0.100000, 3.250000)">
            <g id="Group-6">
                <polygon id="Path-2" fill="#59DD7D" points="7.77885332 2.76801588 9.57989457 1.39522348 10.8441819 1.76886047 12.6277637 3.49577831 9.57989457 4.96074005 7.94778868 4.73162047 8.50579246 6.37452971 7.77885332 6.91240941 6.6387005 5.5580314 6.09323792 6.91240941 4.91871087 7.64496857 5.93614975 9.00707813 5.4020358 9.70413797 3.83678573 8.70285613 2.6915575 12.8363885 0.698433885 14.8590918 0.932833857 13.6009698 1.96817625 11.3357995 2.39152623 6.5942325 4.78518315 3.67190213" />
                <path d="M8.82605101,0.71501915 C8.10119148,0.775188943 7.43227412,1.30277146 6.80520891,2.25689552 L6.74856398,2.34423585 L6.88817176,2.30309561 C2.82551444,3.46538289 1.19258824,6.42378997 2.03916408,11.0350396 C2.1079054,11.4094696 2.08434397,11.8609297 1.97799041,12.3838365 C1.90862684,12.7248752 1.80809894,13.0817311 1.67297828,13.4829392 L1.4888236,13.9989738 L1.14422029,14.9267427 L1.11492238,15.010719 C1.05122529,15.2024472 1.01623529,15.3421876 1.00931482,15.4623821 C0.993445074,15.7380068 1.14216583,15.9930567 1.47016647,15.984528 C2.97387495,15.9452649 4.04256913,12.9835374 4.30845229,10.5926906 L4.33106586,10.2995802 C4.3352782,10.202406 4.33624145,10.1056217 4.33418487,10.0088102 L4.32056398,9.75223585 L4.39961981,9.80601863 C5.3229715,10.3959336 6.33887552,10.18797 6.32963754,9.1961526 C6.32593987,8.7991593 6.13390789,8.53797813 5.7466963,8.24699081 L5.34615943,7.964925 L5.27956398,7.91323585 L5.73639362,7.58979482 L5.86309314,7.48607591 C6.22847532,7.16916924 6.46032192,6.79853834 6.52925957,6.32085962 L6.53556398,6.25123585 L6.5992635,6.34419593 C6.74966396,6.5642575 6.85210652,6.70042842 6.95879672,6.80988662 C7.29421329,7.15400535 7.7642699,7.14927733 8.23186655,6.88107678 C8.45196037,6.75483703 8.55928143,6.50235052 8.64500811,6.08446794 C8.66693999,5.97755894 8.64121008,5.86639949 8.5745335,5.78000056 L8.45822,5.62741798 C8.27948763,5.3899002 8.13619616,5.18445406 8.02933382,5.01572731 L7.94756398,4.88223585 L7.88469912,4.85963383 C8.94419894,5.29153383 10.3495171,4.63651552 12.1479086,2.98573332 C12.3139977,2.83327658 12.3089792,2.56977944 12.1372053,2.42375758 C10.8075505,1.29344185 9.77294285,0.716731587 8.98228108,0.709295183 L8.82605101,0.71501915 Z M9.08477328,1.46613458 C9.57695688,1.52141365 10.2957413,1.90838172 11.2137168,2.63544297 L11.318564,2.72023585 L11.2327901,2.79573982 C9.8391472,3.99173846 8.80549882,4.42507166 8.16781342,4.16512228 C7.50371797,3.89440696 6.94472547,3.99325285 7.06006844,4.67995074 L7.07920608,4.76676545 C7.15113104,5.03421794 7.35858768,5.39365463 7.70785187,5.87459179 L7.87156398,6.09623585 L7.86008995,6.14431151 C7.84288586,6.21192632 7.83675539,6.24308945 7.85871139,6.23049609 C7.65785513,6.34570171 7.55469652,6.34673932 7.49587419,6.28639088 L7.45346055,6.23978785 L7.35149995,6.10983031 L6.94141932,5.51790294 C6.81909658,5.34664654 6.7447846,5.26116353 6.65959673,5.19691543 L6.56860259,5.13735531 C6.00379318,4.81060333 5.79413937,5.27853679 5.80079354,5.99294838 C5.80490324,6.43417857 5.63321357,6.72112689 5.27721053,6.99679323 L4.94297813,7.23280879 L4.76604541,7.36470595 C4.71368987,7.40552319 4.67102496,7.44127222 4.64725651,7.46619385 C4.53146629,7.58760187 4.46120516,7.72701754 4.4627667,7.89466933 C4.46484645,8.11795765 4.56702549,8.2845759 4.7497407,8.44706124 L4.89804937,8.56635452 L5.18203182,8.76430294 C5.47168482,8.96584071 5.57861072,9.0894026 5.57967007,9.20313794 C5.58267447,9.52569911 4.9433004,9.52708976 4.32326237,8.74206623 L4.22561879,8.61151202 C4.14631657,8.49965813 4.10115601,8.44342386 4.0396858,8.39561824 C3.88813989,8.2777604 3.66846764,8.2355141 3.49455103,8.45342311 C3.41162365,8.55732707 3.40226735,8.63545846 3.40905826,8.74513007 L3.42831748,8.87247986 L3.50216808,9.25823065 C3.5810011,9.69665984 3.60859991,10.1001832 3.56304748,10.509795 L3.53881406,10.7072701 C3.33367846,12.2397573 2.68924371,14.1749374 1.99610068,14.9214667 L1.91456398,15.0022358 L2.27099036,14.046016 C2.47291553,13.4835362 2.61791316,13.0005496 2.71294301,12.5333179 C2.83684757,11.9241184 2.86519717,11.380912 2.77683549,10.8996111 C1.99717467,6.65284364 3.41979364,4.07545464 7.09446333,3.02416688 C7.18478519,2.99832667 7.2621181,2.93952582 7.31116184,2.85939801 C7.8978624,1.90084499 8.45957559,1.45446941 8.97526905,1.45922422 L9.08477328,1.46613458 Z" id="Path-42-Copy-3" fill="#3F4144" fill-rule="nonzero" transform="translate(6.638747, 8.347016) rotate(8.000000) translate(-6.638747, -8.347016) " />
            </g>
            <circle id="Oval-Copy-7" fill="#3F4144" transform="translate(9.885867, 2.706280) rotate(36.000000) translate(-9.885867, -2.706280) " cx="9.88586687" cy="2.70627958" r="1" />
        </g>
    </g>
</svg>