<svg xmlns="http://www.w3.org/2000/svg" width="28" height="38" viewBox="0 0 28 38">
    <g fill="none" fill-rule="nonzero">
        <path fill="#3F4144" d="M14.97 12.913v21.13c0 1 .23 1.392.957 1.61l.383.173c.537.174.69.478.69 1.435V38H7v-.74c0-1 .115-1.217.766-1.434l.383-.174c.652-.217.882-.609.882-1.609V12.957c0-1-.23-1.392-.882-1.653l-.383-.13C7.153 10.957 7 10.696 7 9.739V9h10v.74c0 .956-.153 1.303-.69 1.434l-.383.13c-.728.261-.958.653-.958 1.609z"/>
        <g transform="rotate(9 14.436 34.47)">
            <path fill="#7ED987" stroke="#3F4144" stroke-linecap="round" stroke-linejoin="round" stroke-width="1.5" d="M11.911 3.464C13.21 1.319 14.524.246 15.858.246s3.24 1.073 5.717 3.218c-3.379 3.173-5.931 4.407-7.657 3.703-1.726-.705-1.57.298.468 3.009-.132.63-.288.998-.468 1.105-.635.375-1.213.419-1.613 0-.855-.897-2.062-3.77-2.062-1.105S7.57 13.246 7.57 14.03c0 .837 2.178 1.296 2.178 2.613 0 1.318-2.178 1.94-4.004-.709-.73-1.057.296.955 0 3.469C5.537 21.153 3.79 29.525.77 29.635c-.905.032 2.596-5.604 1.953-9.366-1.521-8.902 1.541-14.504 9.187-16.805z"/>
            <ellipse cx="16.576" cy="2.645" fill="#3F4144" rx="1" ry="1"/>
        </g>
    </g>
</svg>
