<svg xmlns="http://www.w3.org/2000/svg" width="24" height="24" viewBox="0 0 24 24">
    <path fill="#C8CCCF" fill-rule="nonzero" d="M13.473 15.781l-2.877 2.877a3.734 3.734 0 0 1-5.254.02.484.484 0 0 1-.02-.02 3.734 3.734 0 0 1 .02-5.254l3.17-3.17a3.734 3.734 0 0 1 5.254-.02l.01.01.01.01c.175.177.327.367.459.566l-.861.862a.754.754 0 0 1-.908.12 1.716 1.716 0 0 0-.122-.138 1.722 1.722 0 0 0-2.42.01l-3.17 3.171a1.722 1.722 0 0 0-.011 2.422c.671.66 1.755.657 2.422-.01l1.802-1.802a4.72 4.72 0 0 0 2.496.346zm5.185-10.46a3.734 3.734 0 0 0-5.254.02L10.527 8.22a4.721 4.721 0 0 1 2.496.346l1.802-1.802a1.722 1.722 0 0 1 2.422-.01c.66.671.657 1.755-.01 2.422l-3.17 3.17c-.667.667-1.75.67-2.42.011a1.758 1.758 0 0 1-.123-.138.754.754 0 0 0-.907.12l-.862.862c.132.2.285.39.459.566l.01.01.01.01a3.734 3.734 0 0 0 5.254-.02l3.17-3.17a3.734 3.734 0 0 0 .02-5.254.484.484 0 0 0-.01-.01l-.01-.01z"/>
</svg>
