<svg xmlns="http://www.w3.org/2000/svg" width="31" height="20" viewBox="0 0 31 20">
    <g fill="none" fill-rule="evenodd">
        <path fill="#59DD7D" d="M14.1 5.3V1C7 1 1.2 5 1.2 10s5.7 9 12.8 9v-4.3c-3.8-1.6-3.8-7.8.1-9.4z"/>
        <path stroke="#59DD7D" stroke-width="2" d="M20.8 1c-2 0-3.8.6-5.2 1.7 2.3 1.6 3.8 4.3 3.8 7.3s-1.5 5.7-3.8 7.3c1.5 1.1 3.3 1.7 5.2 1.7 5 0 9-4 9-9s-4.1-9-9-9z"/>
        <g stroke="#59DD7D">
            <path stroke-width="2" d="M11.8 10c0-3 1.5-5.7 3.8-7.3C14 1.7 12.2 1 10.2 1c-5 0-9 4-9 9s4 9 9 9c2 0 3.8-.6 5.2-1.7-2.2-1.6-3.6-4.3-3.6-7.3z"/>
            <path d="M16.6 17.1V2.9M14.6 17.1V2.9"/>
        </g>
    </g>
</svg>
