<svg xmlns="http://www.w3.org/2000/svg" width="44" height="28" viewBox="0 0 44 28">
    <path fill="#59DD7D" fill-rule="nonzero" d="M29.12 0c-2.8 0-5.32.7-7.42 2.1C19.32.7 16.8 0 14.28 0c-7.7 0-14 6.3-14 14s6.3 14 14 14c2.8 0 5.32-.7 7.42-2.24 2.24 1.4 4.76 2.24 7.42 2.24 7.7 0 14-6.3 14-14s-6.3-14-14-14zM21.7 22.54c-.14-.14-.42-.28-.56-.56V6.16l.7-.7c.28.14.42.42.7.7V21.7l-.84.84zM17.92 14c0-2.24.7-4.34 1.82-6.02V20.3c-1.12-1.82-1.82-4.06-1.82-6.3zm6.02-6.02c1.12 1.82 1.82 3.92 1.82 6.02 0 2.1-.7 4.34-1.82 6.02V7.98zm5.18 17.22c-1.68 0-3.36-.42-4.9-1.12 2.66-2.52 4.34-6.16 4.34-10.08s-1.54-7.56-4.34-10.08c1.4-.7 3.08-1.12 4.9-1.12 6.16 0 11.2 5.04 11.2 11.2 0 6.16-5.04 11.2-11.2 11.2z"/>
</svg>
