<?xml version="1.0" encoding="UTF-8"?>
<svg width="24px" height="24px" viewBox="0 0 24 24" version="1.1" xmlns="http://www.w3.org/2000/svg" xmlns:xlink="http://www.w3.org/1999/xlink">
    <!-- Generator: Sketch 56.3 (81716) - https://sketch.com -->
    <title>Merge</title>
    <desc>Created with Sketch.</desc>
    <g id="UI-Ver-1" stroke="none" stroke-width="1" fill="none" fill-rule="evenodd">
        <g id="Homepage-V2-UI-1" transform="translate(-170.000000, -612.000000)" fill="#C8CCCF" fill-rule="nonzero">
            <path d="M191.789474,612 L178.526316,612 C177.305476,612 176.315789,612.989686 176.315789,614.210526 L176.315789,618.315789 L172.210526,618.315789 C170.989686,618.315789 170,619.305476 170,620.526316 L170,633.789474 C170,635.010314 170.989686,636 172.210526,636 L185.473684,636 C186.694524,636 187.684211,635.010314 187.684211,633.789474 L187.684211,629.684211 L191.789474,629.684211 C193.010314,629.684211 194,628.694524 194,627.473684 L194,614.210526 C194,612.989686 193.010314,612 191.789474,612 Z M185.789474,633.789474 C185.789474,633.963879 185.64809,634.105263 185.473684,634.105263 L172.210526,634.105263 C172.036121,634.105263 171.894737,633.963879 171.894737,633.789474 L171.894737,620.526316 C171.894737,620.35191 172.036121,620.210526 172.210526,620.210526 L176.315789,620.210526 L176.315789,627.473684 C176.315789,628.694524 177.305476,629.684211 178.526316,629.684211 L185.789474,629.684211 L185.789474,633.789474 Z M192.105263,627.473684 C192.105263,627.64809 191.963879,627.789474 191.789474,627.789474 L178.526316,627.789474 C178.35191,627.789474 178.210526,627.64809 178.210526,627.473684 L178.210526,614.210526 C178.210526,614.036121 178.35191,613.894737 178.526316,613.894737 L191.789474,613.894737 C191.963879,613.894737 192.105263,614.036121 192.105263,614.210526 L192.105263,627.473684 Z" id="Merge"></path>
        </g>
    </g>
</svg>