<?xml version="1.0" encoding="UTF-8"?>
<svg width="31px" height="20px" viewBox="0 0 31 20" version="1.1" xmlns="http://www.w3.org/2000/svg" xmlns:xlink="http://www.w3.org/1999/xlink">
    <!-- Generator: Sketch 56.3 (81716) - https://sketch.com -->
    <title>Merge New new-01</title>
    <desc>Created with Sketch.</desc>
    <g id="UI-Ver-1" stroke="none" stroke-width="1" fill="none" fill-rule="evenodd">
        <g id="Homepage-V2-UI-3" transform="translate(-149.000000, -614.000000)">
            <g id="Merge-New-new-01" transform="translate(150.000000, 615.000000)">
                <path d="M13.1,4.3 L13.1,0 C6,0 0.2,4 0.2,9 C0.2,14 5.9,18 13,18 L13,13.7 C9.2,12.1 9.2,5.9 13.1,4.3 Z" id="Path" fill="#50C871"></path>
                <path d="M19.8,0 C17.8,0 16,0.6 14.6,1.7 C16.9,3.3 18.4,6 18.4,9 C18.4,12 16.9,14.7 14.6,16.3 C16.1,17.4 17.9,18 19.8,18 C24.8,18 28.8,14 28.8,9 C28.8,4 24.7,0 19.8,0 Z" id="Path" stroke="#50C871" stroke-width="2"></path>
                <g id="Group" stroke="#50C871">
                    <path d="M10.8,9 C10.8,6 12.3,3.3 14.6,1.7 C13,0.7 11.2,0 9.2,0 C4.2,0 0.2,4 0.2,9 C0.2,14 4.2,18 9.2,18 C11.2,18 13,17.4 14.4,16.3 C12.2,14.7 10.8,12 10.8,9 Z" id="Path" stroke-width="2"></path>
                    <g transform="translate(13.000000, 1.000000)" id="Path">
                        <path d="M2.6,15.1 L2.6,0.9"></path>
                        <path d="M0.6,15.1 L0.6,0.9"></path>
                    </g>
                </g>
            </g>
        </g>
    </g>
</svg>