<svg xmlns="http://www.w3.org/2000/svg" width="195" height="190" viewBox="0 0 195 190">
    <g fill="none" fill-rule="evenodd" transform="translate(0 2)">
        <path fill="#7ED987" d="M38.619 142.692l-2.233-8.627c-3.949-2.987-6.184-4.48-6.705-4.48-.522 0-1.055-.947-1.6-2.841l1.6-4.415 4.066 1.583c.647 1.305.97 2.104.97 2.395 0 .437 2.707 1.514 2.707 1.514l1.657-13.112 3.138.894.899 8.998 4.26-.689 2.42-3.612 1.922 2.03-.396 6.37-7.297 3.245v10.337c-1.262.645-2.221.993-2.88 1.043-.657.05-1.5-.162-2.528-.633zM149.203 148.928v-7.477l-2.161-6.85-4.645-2.122-2.872-2.888 1.907-5.21 2.932 2.998 2.334.937 2.186-.547.319-7.303 1.401-7.066 1.928-.189 1.467 5.475v4.532l.61 10.33 3.058-1.44 1.837-6.466 2.789-.724 1.256 3.398-.649 6.718-5.693 5.175-1.638 2.098-.597 6.62c-1.39.566-2.414.849-3.07.849-.658 0-1.557-.283-2.7-.848z"/>
        <path fill="#E0E4E6" d="M127.595 54.621l11.738-10.026 3.064.845h7.18l5.477-2.05 3.281 1.205 4.837.845 5.592-3.712 4.728-1.395 3.759 1.395 2.045 5.208V54.621z"/>
        <path fill="#EDEFF0" d="M99.928 57.948C88.993 67.092 83.525 74.69 83.525 80.741c0 6.277 14.905 9.268 14.84 19.698-.03 4.652 1.563 4.652-14.84 20.269-6.652 6.333 10.362 24.676 51.043 55.029 2.603 2.298 1.943 3.683-1.983 4.153-2.165.26-7.11 2.45-10.463 4.325-15.875 8.872-14.865-.748-15.455-.748-1.174 0-26.573-18.26-37.203-40.534-2.177-4.562-3.475-15.958-4.105-20.031-1.155-7.466 12.078-11.017 16.095-15.295 7.39-7.87-1.395-6.517-11.089-29.189-1.442-3.372 2.945-10.195 13.16-20.47h16.403z"/>
        <path fill="#E0E4E6" d="M13.963 55.027l5.268-9.965 1.98-5.958 6.504-2.417 13.25 4.266 9.875 4.109 14.118 7.173 4.937 2.792-10.37 1.942z"/>
        <path stroke="#3F4144" stroke-linecap="round" stroke-linejoin="round" stroke-width="4" d="M7 56.098c21.44.433 38.008.625 49.703.578 12.813-.052 26.147-.245 40-.578M97.393 56.098h95.233"/>
        <path stroke="#3F4144" stroke-linecap="round" stroke-linejoin="round" stroke-width="4" d="M7.495 56.175c4.832-5.08 6.008-18.974 13.334-18.974 7.325 0 10.452 3.642 21.226 5.619 3.796.696 7.349 5.429 12.039 7.628 2.618 1.229 7.16 3.138 13.624 5.727M82.71 56.683C62.6 66.176 59.102 77.758 72.213 91.43c19.667 20.508-14.593 14.014-13.067 34.416.398 5.323 1.435 9.767 3.182 13.924 2.716 6.467 17.955 30.219 39.142 44.19"/>
        <path stroke="#3F4144" stroke-linecap="round" stroke-linejoin="round" stroke-width="4" d="M127.83 175.566c-30.52-20.764-58.682-48.563-47.35-57.212 8.683-6.625 22.326-18.416 3.798-31.002-12.353-8.39-7.333-18.945 13.968-31.191"/>
        <path fill="#7ED987" d="M62.491 31.668v.035h-15.24v-.002l-.121.002c-2.873 0-5.201-2.559-5.201-5.715 0-2.683 1.682-4.934 3.951-5.55a4.68 4.68 0 0 1-.069-.8c0-3.157 3.165-5.716 7.07-5.716 3.905 0 7.07 2.56 7.07 5.716 0 .34-.037.675-.107 1a5.703 5.703 0 0 1 2.012-.365c.549 0 1.08.077 1.581.221a5.718 5.718 0 0 1-.946 11.174zM167 33.973V34h-12c-2.21 0-4-2.015-4-4.5 0-2.118 1.3-3.895 3.053-4.373A3.73 3.73 0 0 1 154 24.5c0-2.485 2.462-4.5 5.5-4.5s5.5 2.015 5.5 4.5c0 .268-.029.531-.084.787a4.503 4.503 0 0 1 2.829-.112 4.502 4.502 0 0 1-.745 8.798z"/>
        <path stroke="#3F4144" stroke-linecap="round" stroke-linejoin="round" stroke-width="4" d="M89.503 157.18c2.69 3.32 5.382 6.043 8.073 8.17M104.207 171.102c3.49 3.504 6.996 6.393 10.52 8.665M77.003 142.394s2.534 4.805 7.011 8.39M70.56 127.483c.115 1.844.345 3.23.69 4.16.347.931.984 2.175 1.912 3.732M74.917 114.085s-2.476 1.91-3.667 3.43c-1.468 1.872-1.708 3.428-1.708 3.428M85.038 103.924c-.693 2.295-2.203 4.027-4.53 5.196M84.668 97.178c-.347-1.911-1.295-3.412-2.844-4.502M77.884 89.192c-1.224-1.156-2.22-2.547-2.987-4.173M72.263 80.051a8.01 8.01 0 0 1-.804-2.882M71.34 72.175c0-1 .483-2 1.451-3M76.39 65.5c.313-.284.194-.362 1.87-1.292"/>
        <path fill="#E0E4E6" d="M153.067 103.244c10.008-2.495 16.669-3.92 19.982-4.276 4.97-.534 9.932-6.967 8.989-7.72-2.577-2.054-11.763-2.586-23.288 1.788-2.424.92-6.318 3.184-11.681 6.792"/>
        <path stroke="#3F4144" stroke-linecap="round" stroke-linejoin="round" stroke-width="3.6" d="M82.624 60.905c.247-.191.856-.553 1.94-1.182"/>
        <path stroke="#3F4144" stroke-linecap="round" stroke-linejoin="round" stroke-width="4" d="M144.324 100.765c1.612-.63 4.518-2.671 8.719-6.122 4.2-3.45 14.005-4.625 29.412-3.523M143.937 56.098c6.913-2.805 11.576-4.887 13.99-6.249 6.82-3.845 9.494-9.024 15.342-9.024 5.01 0 7.591 5.091 7.743 15.273"/>
        <g stroke="#3F4144" stroke-linecap="round" stroke-linejoin="round" stroke-width="4">
            <path d="M138.934 98.849V84.68M134.28 92.564h3.225M143.454 91.109h-3.225M143.713 88.022v3.087M134.117 89.477v3.087"/>
        </g>
        <g stroke="#3F4144" stroke-linecap="round" stroke-linejoin="round" stroke-width="4">
            <path d="M167.701 89.672v-9.355M164.46 84.865l2.813 1.018M170.714 84.702l-2.39 1.181"/>
        </g>
        <path stroke="#3F4144" stroke-linecap="round" stroke-linejoin="round" stroke-width="4" d="M117.526 55.901c6.306-4.367 11.105-7.617 14.398-9.75 4.94-3.198 5.288 3.817 12.41 0 4.749-2.543 10.295-2.323 16.64.66M154.944 148.342c.247-1.47.51-6.729 1.105-7.718 1.692-2.81 7.29-2.626 7.29-7.998s.165-7.606-2.428-7.606c-1.73 0-2.924 2.65-2.757 7.606-2.14 1.404-3.21 1.368-3.21-.109 0-2.216 0-20.565-3.082-20.565-2.055 0-3.003 5.464-2.845 16.393-3.403-.025-5.105-.803-5.105-2.336 0-2.299.19-5.846-1.556-5.846s-2.283 1.637-2.283 8.182 5.779 2.85 7.97 7.865c.992 2.273 1.375 4.945 1.146 8.016.124.542-.26 3.894-.172 4.116"/>
        <g fill="#3F4144" transform="translate(19.929 148.83)">
            <ellipse cx="1.938" cy="2.543" rx="1.837" ry="1.752"/>
            <ellipse cx="16.483" cy="20.5" rx="1.837" ry="1.752"/>
            <ellipse cx="42.11" cy="16.997" rx="1.837" ry="1.752"/>
        </g>
        <g fill="#3F4144" transform="rotate(32 -98.73 77.242)">
            <ellipse cx="2.585" cy="16.234" rx="1.148" ry="1.095"/>
            <ellipse cx="11.799" cy="2.164" rx="1.148" ry="1.095"/>
            <ellipse cx="34.999" cy="7.624" rx="1.148" ry="1.095"/>
        </g>
        <g fill="#3F4144" transform="translate(125.937 109.982)">
            <ellipse cx="53.066" cy="2.512" rx="1.699" ry="1.621"/>
            <ellipse cx="2.192" cy="17.56" rx="1.699" ry="1.621"/>
            <ellipse cx="52.371" cy="20.801" rx="1.699" ry="1.621"/>
        </g>
        <g fill="#3F4144" transform="translate(133.937 61.58)">
            <ellipse cx="2.816" cy="15.049" rx="1.251" ry="1.193"/>
            <ellipse cx="24.748" cy="2.296" rx="1.251" ry="1.193"/>
            <ellipse cx="54.135" cy="16.242" rx="1.251" ry="1.193"/>
        </g>
        <path stroke="#3F4144" stroke-linecap="round" stroke-linejoin="round" stroke-width="4" d="M13.372 47.973h7.37"/>
        <circle cx="111.638" cy="8.838" r="8.698" stroke="#3F4144" stroke-linecap="round" stroke-linejoin="round" stroke-width="4"/>
        <path stroke="#3F4144" stroke-linecap="round" stroke-linejoin="round" stroke-width="4" d="M38.028 142.049c-.06-1.722-.407-5.573-1.54-7.9-.948-1.944-8.526-3.383-8.526-6.76 0-3.376.924-5.58 3.18-5.58 1.35 0 2.897 1.34 2.766 4.456 1.683.883 4.161 2.052 4.12 1.124-.423-9.491-.423-13.063 2-13.063 1.614 0 3.092-.431 2.658 10.441 2.676-.015 4.585-.071 4.585-1.035 0-1.445.663-3.502 2.035-3.502 1.373 0 2.613 1.921 2.613 6.035s-5.957 2.535-7.679 5.687c-.78 1.429-.78 6.903 0 10.097M58.849 29.746v.035h-15.24v-.002l-.122.002c-2.873 0-5.201-2.56-5.201-5.716 0-2.683 1.682-4.934 3.951-5.549a4.68 4.68 0 0 1-.069-.8c0-3.157 3.166-5.716 7.07-5.716 3.905 0 7.07 2.559 7.07 5.715 0 .341-.036.675-.107 1a5.703 5.703 0 0 1 2.013-.365 5.718 5.718 0 0 1 .635 11.395zM164 30.973V31h-12c-2.21 0-4-2.015-4-4.5 0-2.118 1.3-3.895 3.053-4.373A3.73 3.73 0 0 1 151 21.5c0-2.485 2.462-4.5 5.5-4.5s5.5 2.015 5.5 4.5c0 .268-.029.531-.084.787a4.503 4.503 0 0 1 2.829-.112 4.502 4.502 0 0 1-.745 8.798z"/>
        <path fill="#EDEFF0" d="M120.68 106.401c7.5 1.431 13.23 2.07 17.19 1.915 3.96-.154 9.69-1.238 17.19-3.253-7.5-3.285-13.39-4.844-17.668-4.678-4.278.167-9.848 2.172-16.711 6.016z"/>
        <path stroke="#3F4144" stroke-linecap="round" stroke-linejoin="round" stroke-width="4" d="M119.671 104.833c3.512-1.082 6.061-1.89 7.647-2.427 2.793-.943 5.021-2.427 7.908-2.427 5.346 0 12.584 1.618 21.714 4.854"/>
        <path fill="#EDEFF0" d="M100.918 76.698c-1.79 1.088 3.352 2.227 8.935 2.588 3.515.228 7.059.315 9.617-.638 3.546-1.32-1.016-3.51-6.627-3.859-4.87-.301-10.57 1.086-11.925 1.91z"/>
        <path stroke="#3F4144" stroke-linecap="round" stroke-linejoin="round" stroke-width="4" d="M100.53 76.36c4.653-.566 7.522-1.074 8.605-1.525 4.762-1.983 9.07-.07 11.613 1.524"/>
        <g transform="rotate(3 -1274.908 61.094)">
            <path fill="#7ED987" stroke="#3F4144" stroke-linecap="round" stroke-linejoin="round" stroke-width="2.2" d="M36.642 8.498c.483 3.238 1.44 4.857 2.873 4.857 2.149 0 2.853-2.436 1.257-2.436-1.065 0-1.681-.854-1.85-2.564"/>
            <path fill="#7ED987" stroke="#3F4144" stroke-linecap="round" stroke-linejoin="round" stroke-width="2.5" d="M33.517 4.137C35.142 1.587 36.79.312 38.461.312c1.67 0 4.057 1.275 7.16 3.825-6.089 4.214-9.856 6.32-11.301 6.32-1.446 0-1.326 1.392.36 4.174-1.11.839-2.022.903-2.736.192-.714-.71-1.37-2.165-1.97-4.365-5.672 1.206-8.762 1.128-9.271-.236-.764-2.046 1.706 4.87-.866 4.87-2.573 0 .555-5.164-5.098-4.634-5.652.53-12.496 1.16-14.094-2.482-.395-.9 4.166 1.986 11.853 0 3.062-.79 7.45-3.002 12.282-4.387 1.944-.558 4.857-.375 8.737.548z"/>
            <circle cx="37.212" cy="5.271" r="1.5" fill="#3F4144"/>
        </g>
    </g>
</svg>
