<svg xmlns="http://www.w3.org/2000/svg" width="18" height="17" viewBox="0 0 18 17">
    <g fill="#C8CCCF" fill-rule="nonzero">
        <path d="M1.125 7.669a.552.552 0 0 0-.563.562c0 .319.244.563.563.563 3.469 0 6.3 2.812 6.3 6.3 0 .319.244.562.563.562a.552.552 0 0 0 .562-.562c-.019-4.106-3.338-7.425-7.425-7.425z"/>
        <path d="M1.125 10.856a.552.552 0 0 0-.563.563c0 .319.244.562.563.562 1.706 0 3.112 1.388 3.112 3.094 0 .319.244.563.563.563a.552.552 0 0 0 .563-.563c-.02-2.325-1.913-4.219-4.238-4.219zM1.125 14.044a1.04 1.04 0 0 0-1.031 1.031 1.04 1.04 0 0 0 1.031 1.031 1.04 1.04 0 0 0 1.031-1.031 1.04 1.04 0 0 0-1.031-1.031zM15.919.019H2.55A1.988 1.988 0 0 0 .563 2.006v3.019c0 .131 5.005.498 7.987 3.475 1.466 1.464 1.76 3.757 2.063 6.575.095.893 2.217-.359 2.929-.384 1.793-.063 3.151-.647 3.24-.647.318 0 0-9.068 0-9.387L1.686 2.007c0-.488 15.313 2.01 15.782 2.01l-1.55-2.873c.487 0-14.232.394-14.232.862L16.782 13.65c0 .487-6.168 1.106-6.168 1.425 0 .319.243.563.562.563h4.744c1.106 0 1.987-.9 1.987-1.988V2.006C17.906.9 17.006.02 15.92.02z"/>
    </g>
</svg>
