<?xml version="1.0" encoding="UTF-8"?>
<svg width="68px" height="68px" viewBox="0 0 68 68" version="1.1" xmlns="http://www.w3.org/2000/svg" xmlns:xlink="http://www.w3.org/1999/xlink">
    <!-- Generator: Sketch 57.1 (83088) - https://sketch.com -->
    <title>Sad Face 1@2x</title>
    <desc>Created with Sketch.</desc>
    <g id="UI-Ver-1" stroke="none" stroke-width="1" fill="none" fill-rule="evenodd">
        <g id="Homepage-V2-UI-6-no-results" transform="translate(-686.000000, -619.000000)">
            <g id="Sad-Face-1@2x" transform="translate(687.000000, 620.000000)">
                <circle id="bg" fill="#EDEFF0" cx="34.5793082" cy="34.5793082" r="31.5131016"></circle>
                <circle id="Oval-12" stroke="#363636" stroke-width="2.63999984" cx="31.5296532" cy="31.5296532" r="31.2096533"></circle>
                <path d="M43.7282732,27.4634466 C43.7282732,26.3407387 44.6386687,25.4303433 45.7613765,25.4303433 C46.8840844,25.4303433 47.7944799,26.3407387 47.7944799,27.4634466 C47.7944799,28.5861544 46.8840844,29.4965499 45.7613765,29.4965499 C44.6386687,29.4965499 43.7282732,28.5861544 43.7282732,27.4634466" id="Fill-4" fill="#363636"></path>
                <path d="M16.2813783,27.4634466 C16.2813783,26.3407387 17.1917738,25.4303433 18.3144816,25.4303433 C19.4371895,25.4303433 20.3475849,26.3407387 20.3475849,27.4634466 C20.3475849,28.5861544 19.4371895,29.4965499 18.3144816,29.4965499 C17.1917738,29.4965499 16.2813783,28.5861544 16.2813783,27.4634466" id="Fill-6" fill="#363636"></path>
                <path d="M22.3806883,40.6786182 C22.3806883,40.6786182 24.1031646,36.6124116 32.5462049,36.6124116 C40.9892452,36.6124116 42.7117215,40.6786182 42.7117215,40.6786182" id="Line" stroke="#363636" stroke-width="2.63999984" stroke-linecap="round" stroke-linejoin="bevel"></path>
                <path d="M48.8110315,39.6620665 C50.4953095,39.6620665 51.8606865,38.2966895 51.8606865,36.6124116 C51.8606865,35.4895596 50.8441348,33.7953068 48.8110315,31.5296532 C46.7779282,33.7953068 45.7613765,35.4895596 45.7613765,36.6124116 C45.7613765,38.2966895 47.1267536,39.6620665 48.8110315,39.6620665 Z" id="Oval" stroke="#3F4144" stroke-width="1.7599999" fill="#59DD7D"></path>
            </g>
        </g>
    </g>
</svg>