<svg xmlns="http://www.w3.org/2000/svg" width="56" height="56" viewBox="0 0 56 56">
    <g fill="none" fill-rule="evenodd">
        <rect width="54" height="54" x="1" y="1" fill="#EDEFF0" stroke="#C8CCCF" stroke-width="2" rx="3"/>
        <rect width="46" height="38" x="5" y="5" fill="#F7F7F7" stroke="#3F4144" stroke-width="2" rx="3"/>
        <rect width="46" height="38" x="5" y="5" stroke="#C8CCCF" stroke-width="2" rx="3"/>
        <path fill="#C8CCCF" stroke="#C8CCCF" stroke-linecap="round" stroke-linejoin="round" stroke-width="2" d="M28.364 24.453c-2.26 0-4.091 1.854-4.091 4.14h8.182c0-2.272-1.832-4.14-4.091-4.14z"/>
        <path fill="#C8CCCF" d="M33.273 20.313c.903 0 1.636-.742 1.636-1.657 0-.914-.733-1.656-1.636-1.656-.904 0-1.637.742-1.637 1.656 0 .915.733 1.657 1.637 1.657z"/>
        <ellipse cx="22.636" cy="18.656" fill="#C8CCCF" rx="1.636" ry="1.656"/>
    </g>
</svg>
